<?xml version="1.0" encoding="utf-8"?>
<svg viewBox="0 0 48 48" xmlns="http://www.w3.org/2000/svg">
  <ellipse style="fill: rgb(168, 255, 210);" cx="24.234" cy="30.404" rx="20.313" ry="15.172" transform="matrix(1, 0, 0, 1, 0, 1.7763568394002505e-15)"/>
  <ellipse style="fill: rgb(0, 138, 67); stroke: rgb(0, 0, 0);" cx="24.434" cy="30.553" rx="16.02" ry="9.433" transform="matrix(1, 0, 0, 1, 0, 1.7763568394002505e-15)"/>
  <ellipse style="fill: rgb(168, 255, 210);" cx="18.395" cy="30.016" rx="2.994" ry="2.994" transform="matrix(1, 0, 0, 1, 0, 1.7763568394002505e-15)"/>
  <ellipse style="fill: rgb(168, 255, 210);" cx="29.176" cy="30.215" rx="3.893" ry="3.593" transform="matrix(1, 0, 0, 1, 0, 1.7763568394002505e-15)"/>
  <path style="fill: rgb(216, 216, 216); stroke: rgb(0, 0, 0);" d="M 23.586 13.923 L 20.092 9.931 L 12.806 10.03 L 12.606 1.446 L 37.66 1.346 L 37.66 10.33 L 28.377 10.43 L 23.586 13.923 Z" transform="matrix(1, 0, 0, 1, 0, 1.7763568394002505e-15)"/>
</svg>