<?xml version="1.0" encoding="utf-8"?>
<svg viewBox="0 0 48 48" xmlns="http://www.w3.org/2000/svg" xmlns:bx="https://boxy-svg.com">
  <path style="stroke: rgb(0, 0, 0); fill: rgb(77, 77, 77);" transform="matrix(0.11350099742412567, 0, 0, 0.10574200004339218, -51.5830192565918, -12.166112899780273)" d="M 647.045 147.5 L 689.955 147.5 L 699.122 220.331 A 128.375 128.375 0 0 1 725.178 229.814 L 779.015 179.915 L 811.886 207.497 L 772.094 269.181 A 128.375 128.375 0 0 1 785.958 293.195 L 859.274 289.575 L 866.725 331.834 L 796.593 353.508 A 128.375 128.375 0 0 1 791.778 380.815 L 850.268 425.169 L 828.812 462.331 L 761.156 433.854 A 128.375 128.375 0 0 1 739.914 451.678 L 756.21 523.251 L 715.888 537.927 L 682.364 472.624 A 128.375 128.375 0 0 1 654.636 472.624 L 621.112 537.927 L 580.79 523.251 L 597.086 451.678 A 128.375 128.375 0 0 1 575.844 433.854 L 508.188 462.331 L 486.732 425.169 L 545.222 380.815 A 128.375 128.375 0 0 1 540.407 353.508 L 470.275 331.834 L 477.726 289.575 L 551.042 293.195 A 128.375 128.375 0 0 1 564.906 269.181 L 525.114 207.497 L 557.985 179.915 L 611.822 229.814 A 128.375 128.375 0 0 1 637.878 220.331 Z M 668.5 260.075 A 84.925 84.925 0 0 0 668.5 429.925 A 84.925 84.925 0 0 0 668.5 260.075" bx:shape="cog 668.5 345 84.925 128.375 197.5 0.38 9 1@3ed99a00"/>
</svg>